<?xml version="1.0" encoding="iso-8859-1"?>
<!-- Generator: Adobe Illustrator 18.0.0, SVG Export Plug-In . SVG Version: 6.00 Build 0)  -->
<!DOCTYPE svg PUBLIC "-//W3C//DTD SVG 1.1//EN" "http://www.w3.org/Graphics/SVG/1.1/DTD/svg11.dtd">
<svg version="1.1" id="Capa_1" xmlns="http://www.w3.org/2000/svg" xmlns:xlink="http://www.w3.org/1999/xlink" x="0px" y="0px"
	 viewBox="0 0 461.723 461.723" style="enable-background:new 0 0 461.723 461.723;" xml:space="preserve">
<path d="M372.518,285.526c-2.603-5.205-0.325-12.371,2.312-20.667c4.17-13.121,9.359-29.449-2.796-46.467
	c-4.086-5.72-8.624-11.243-13.013-16.584c-15.848-19.286-30.816-37.502-31.701-69.341c-1.23-44.287-16.134-54.136-36.763-67.768
	c-1.078-0.712-2.176-1.438-3.294-2.183c-1.947-1.298-3.932-2.596-5.937-3.906c-19.922-13.023-40.521-26.49-44.521-53.488
	C236.37,2.179,233.827,0,230.853,0s-5.5,2.179-5.935,5.121c-4,26.998-24.6,40.464-44.521,53.488
	c-2.005,1.311-3.99,2.609-5.937,3.907c-1.118,0.745-2.216,1.471-3.293,2.183c-20.628,13.632-35.533,23.481-36.763,67.769
	c-0.885,31.84-15.854,50.056-31.702,69.342c-4.389,5.34-8.926,10.863-13.012,16.583c-12.156,17.018-6.966,33.347-2.796,46.467
	c2.637,8.297,4.915,15.463,2.312,20.668c-9.216,18.432-9.717,39.35-1.341,55.957c10.546,20.91,33.556,34.595,68.389,40.677
	c35.267,6.158,52.201,14.284,60.196,20.016c7.228,5.182,8.254,9.107,8.393,9.912c-0.067,0.516,0.02,43.635,0.02,43.635
	c0,3.313,2.687,6,6,6s6-2.687,6-6c0,0,0.087-43.118,0.02-43.635c0.138-0.805,1.165-4.729,8.393-9.912
	c7.995-5.732,24.929-13.858,60.196-20.016c34.833-6.082,57.843-19.768,68.389-40.678
	C382.235,324.876,381.734,303.958,372.518,285.526z M224.401,393.128c-12.981-9.731-35.215-17.398-66.084-22.789
	c-30.458-5.318-51.116-17.165-59.738-34.26c-9.894-19.616-1.46-39.545,1.36-45.186c4.781-9.563,1.533-19.784-1.609-29.669
	c-3.878-12.202-7.541-23.726,1.125-35.858c3.85-5.39,8.061-10.514,12.519-15.939c15.668-19.067,33.427-40.679,34.425-76.628
	c1.057-38.049,11.829-45.167,31.383-58.09c1.091-0.721,2.203-1.456,3.334-2.21c1.917-1.278,3.873-2.556,5.847-3.847
	c14.271-9.33,29.828-19.503,39.89-35.104v66.034c-5.629-1.839-15.443-5.288-26.986-10.384c-2.02-0.892-4.383,0.021-5.275,2.043
	c-0.892,2.021,0.022,4.383,2.043,5.275c13.851,6.116,25.125,9.88,30.217,11.471v41.873c-8.268-2.705-25.58-8.888-44.176-18.669
	c-1.954-1.028-4.373-0.278-5.402,1.678c-1.028,1.955-0.277,4.374,1.678,5.402c21.389,11.25,40.735,17.762,47.899,19.996v41.869
	c-10.491-3.435-35.575-12.484-59.425-27.407c-1.872-1.171-4.341-0.603-5.513,1.27c-1.171,1.873-0.604,4.341,1.27,5.513
	c26.941,16.857,54.73,26.253,63.668,29.036v41.866c-11.695-3.835-41.491-14.643-67.496-32.726c-1.814-1.26-4.306-0.813-5.568,1
	c-1.261,1.814-0.813,4.307,1,5.568c29.278,20.358,62.194,31.501,72.063,34.571v41.864c-14.003-4.597-53.958-19.203-82.394-44.361
	c-1.654-1.463-4.183-1.31-5.646,0.345c-1.464,1.654-1.31,4.182,0.345,5.646c31.817,28.15,75.931,43.133,87.694,46.787v42.078
	c-16.397-4.657-69.727-21.61-102.226-53.124c-1.585-1.538-4.119-1.499-5.656,0.087c-1.538,1.586-1.499,4.118,0.087,5.656
	c35.819,34.734,93.748,51.917,107.795,55.7v35.593C226.088,394.448,225.287,393.792,224.401,393.128z M363.145,336.079
	c-8.622,17.095-29.28,28.942-59.739,34.26c-38.839,6.781-58.578,16.353-68.553,24.809v-35.64
	c14.047-3.783,71.976-20.967,107.795-55.7c1.586-1.538,1.625-4.07,0.087-5.656c-1.539-1.586-4.071-1.625-5.656-0.087
	c-32.47,31.486-85.824,48.46-102.226,53.123v-42.077c11.764-3.653,55.877-18.637,87.694-46.787c1.655-1.464,1.809-3.992,0.345-5.646
	c-1.464-1.655-3.993-1.81-5.646-0.345c-28.435,25.158-68.391,39.763-82.394,44.361v-41.864c9.87-3.069,42.785-14.213,72.063-34.571
	c1.813-1.261,2.262-3.754,1-5.568c-1.261-1.813-3.754-2.261-5.568-1c-26.005,18.083-55.8,28.89-67.496,32.726V208.55
	c8.938-2.783,36.727-12.18,63.668-29.036c1.873-1.172,2.441-3.64,1.27-5.513c-1.172-1.873-3.641-2.442-5.513-1.27
	c-23.82,14.904-48.927,23.965-59.425,27.405v-41.868c7.164-2.234,26.511-8.746,47.899-19.996c1.956-1.028,2.707-3.447,1.678-5.402
	s-3.447-2.706-5.402-1.678c-18.569,9.766-35.9,15.958-44.176,18.667v-41.872c5.092-1.591,16.366-5.355,30.217-11.471
	c2.021-0.892,2.936-3.254,2.043-5.275c-0.892-2.021-3.254-2.935-5.275-2.043c-11.524,5.088-21.35,8.541-26.986,10.383V33.524
	c10.062,15.615,25.628,25.794,39.907,35.128c1.975,1.291,3.93,2.569,5.847,3.847c1.131,0.754,2.243,1.489,3.334,2.21
	c19.555,12.922,30.326,20.04,31.383,58.089c0.998,35.949,18.756,57.56,34.424,76.627c4.458,5.425,8.669,10.55,12.52,15.94
	c8.666,12.132,5.002,23.656,1.125,35.858c-3.142,9.885-6.39,20.106-1.609,29.669C364.605,296.534,373.039,316.463,363.145,336.079z"
	/>
<g>
</g>
<g>
</g>
<g>
</g>
<g>
</g>
<g>
</g>
<g>
</g>
<g>
</g>
<g>
</g>
<g>
</g>
<g>
</g>
<g>
</g>
<g>
</g>
<g>
</g>
<g>
</g>
<g>
</g>
</svg>
